<?xml version="1.0" standalone="no"?>
<!DOCTYPE svg PUBLIC "-//W3C//DTD SVG 20010904//EN"
 "http://www.w3.org/TR/2001/REC-SVG-20010904/DTD/svg10.dtd">
<svg version="1.0" xmlns="http://www.w3.org/2000/svg"
 width="2364.000000pt" height="2364.000000pt" viewBox="0 0 2364.000000 2364.000000"
 preserveAspectRatio="xMidYMid meet">
<metadata>
Created by potrace 1.11, written by Peter Selinger 2001-2013
</metadata>
<g transform="translate(0.000000,2364.000000) scale(0.100000,-0.100000)"
fill="#000000" stroke="none">
<path d="M6879 23636 c-2 -2 -58 -7 -124 -11 -66 -3 -138 -8 -160 -10 -105
-10 -168 -17 -183 -20 -9 -1 -51 -6 -92 -10 -41 -3 -82 -8 -90 -10 -8 -2 -35
-7 -60 -10 -25 -3 -56 -8 -70 -10 -14 -2 -45 -7 -70 -10 -25 -3 -52 -8 -61
-11 -9 -2 -52 -11 -95 -19 -75 -14 -90 -16 -159 -30 -217 -43 -615 -154 -870
-243 -362 -127 -760 -302 -1050 -461 -33 -19 -85 -47 -115 -64 -44 -24 -241
-143 -364 -220 -150 -93 -429 -293 -601 -431 -228 -182 -367 -307 -600 -541
-213 -213 -236 -238 -377 -403 -134 -157 -127 -149 -187 -227 -30 -39 -57 -72
-60 -75 -4 -3 -18 -21 -31 -40 -14 -19 -28 -39 -33 -45 -9 -11 -167 -233 -182
-256 -5 -9 -28 -42 -49 -75 -120 -181 -173 -268 -276 -449 -110 -195 -255
-489 -339 -690 -23 -55 -48 -113 -56 -130 -14 -32 -52 -132 -108 -285 -30 -80
-80 -235 -143 -442 -11 -37 -86 -331 -99 -388 -22 -101 -54 -267 -71 -367 -2
-16 -6 -37 -9 -49 -3 -12 -7 -36 -9 -55 -3 -19 -10 -65 -15 -104 -10 -67 -15
-110 -26 -200 -2 -22 -7 -74 -10 -115 -3 -41 -8 -84 -10 -95 -2 -11 -8 -81
-12 -155 -11 -179 -10 -9949 0 -10110 5 -69 10 -138 11 -155 2 -16 6 -65 10
-107 4 -43 9 -92 11 -110 3 -18 7 -55 10 -83 4 -27 8 -62 10 -76 3 -14 7 -41
9 -60 3 -19 7 -47 10 -64 2 -16 8 -50 11 -75 4 -25 9 -54 11 -65 2 -11 7 -33
9 -50 53 -300 146 -665 248 -975 41 -122 111 -319 131 -364 7 -17 26 -62 41
-101 15 -38 38 -92 50 -120 13 -27 35 -79 51 -115 53 -124 261 -525 337 -653
42 -71 77 -133 77 -138 0 -5 5 -9 10 -9 6 0 10 -5 10 -11 0 -17 223 -350 334
-499 114 -154 233 -303 321 -405 34 -38 72 -83 86 -99 131 -153 413 -435 633
-631 97 -87 292 -247 351 -290 16 -11 33 -25 39 -30 73 -68 440 -317 687 -466
387 -233 893 -471 1284 -604 44 -15 89 -31 100 -36 122 -53 757 -218 975 -253
19 -3 47 -8 63 -11 15 -3 39 -7 55 -10 41 -8 145 -23 207 -31 22 -3 49 -7 60
-9 11 -2 45 -7 75 -10 30 -3 71 -7 90 -9 171 -18 240 -24 420 -33 187 -10
9779 -9 9965 1 83 4 164 9 180 10 208 20 337 34 375 41 14 2 48 7 75 10 85 11
102 14 162 24 32 6 74 13 93 16 29 5 133 26 246 49 148 32 332 77 469 117 113
33 328 100 350 109 11 5 83 31 160 60 505 185 1000 436 1460 738 88 58 166
111 173 119 7 7 17 13 22 13 5 0 15 6 22 13 7 7 56 44 108 82 52 38 111 81
130 97 350 279 563 473 830 755 122 129 148 158 255 285 53 62 105 124 117
138 12 14 70 90 130 170 59 80 113 151 120 159 15 19 258 382 258 387 0 2 15
27 34 56 125 198 336 600 441 843 7 17 22 50 33 75 27 62 98 236 115 285 8 22
37 103 64 180 129 361 257 866 309 1220 3 22 12 81 19 130 8 50 17 115 20 145
3 30 8 71 10 90 2 19 7 71 11 115 4 44 8 94 10 110 16 163 18 960 18 5165 0
4278 -2 5021 -19 5170 -2 19 -6 69 -9 110 -3 41 -8 86 -10 100 -2 14 -7 52
-10 85 -4 33 -8 71 -10 85 -2 14 -9 63 -16 110 -14 102 -64 377 -85 475 -9 39
-18 81 -21 95 -9 43 -65 263 -74 295 -6 17 -19 64 -30 105 -12 41 -24 84 -29
95 -4 11 -33 99 -65 195 -55 167 -144 404 -188 500 -20 45 -43 98 -58 135 -5
11 -52 109 -105 218 -174 356 -353 659 -582 985 -96 135 -295 398 -317 417 -6
6 -23 26 -37 45 -15 19 -35 44 -45 55 -11 11 -34 38 -53 60 -187 220 -514 544
-761 755 -47 40 -96 82 -110 94 -159 136 -525 398 -765 548 -214 134 -676 386
-688 376 -2 -2 -14 4 -28 13 -13 9 -83 42 -154 73 -72 32 -143 63 -160 71
-151 67 -569 216 -730 260 -145 40 -352 96 -370 99 -11 3 -54 12 -95 21 -167
37 -387 79 -478 90 -24 3 -53 7 -65 10 -12 2 -42 7 -67 10 -25 3 -55 7 -68 10
-13 2 -58 7 -100 11 -42 3 -85 8 -94 9 -9 2 -61 7 -115 11 -54 4 -116 9 -138
12 -45 6 -9999 14 -10006 8z"/>
</g>
</svg>
